# xmcd
#
# Track frame offsets:
#	180
#	14852
#	27725
#	41100
#	54980
#	66299
#	79280
#	96090
#	108238
#	129620
#	145725
#	159733
#	171407
#	187979
#	199364
#	212743
#	225063
#
# Disc length: 3126 seconds
#
# Revision: 0
# Processed by: cddbd v1.4PL0 Copyright (c) Steve Scherf et al.
# Submitted via: audiograbber 1.81.02
#
DISCID=f60c3411
DTITLE=Blue Shades - So Happy Together
DYEAR=2002
DGENRE=bluegrass
TTITLE0=Dear Old Dixie
TTITLE1=It Wasn't You 
TTITLE2=Listening To The Rian
TTITLE3=Old Carolina
TTITLE4=Circuit Rider
TTITLE5=Baby Worte Me A Letter
TTITLE6=Travelin Kind
TTITLE7=Poet With Wings
TTITLE8=Lonesome Hobo
TTITLE9=So Happy Together
TTITLE10=Redwood Hills
TTITLE11=The Blue Road
TTITLE12=Lonesome Pine
TTITLE13=Far Cry
TTITLE14=Gone But Not  Forgotten
TTITLE15=Ages And Ages Ago
TTITLE16=On The Sea of Life
EXTD=
EXTT0=
EXTT1=
EXTT2=
EXTT3=
EXTT4=
EXTT5=
EXTT6=
EXTT7=
EXTT8=
EXTT9=
EXTT10=
EXTT11=
EXTT12=
EXTT13=
EXTT14=
EXTT15=
EXTT16=
PLAYORDER=
